<svg xmlns="http://www.w3.org/2000/svg" viewBox="0 0 1280 720" width="1280" height="720">
  <defs>
    <linearGradient id="tealBlue" x1="0" y1="0" x2="1" y2="0">
      <stop offset="0%" stop-color="#155E75" />
      <stop offset="100%" stop-color="#0F766E" />
    </linearGradient>
    <filter id="softShadow" x="-15%" y="-15%" width="130%" height="130%">
      <feGaussianBlur in="SourceAlpha" stdDeviation="8" />
      <feOffset dx="0" dy="4" result="offsetBlur" />
      <feFlood flood-color="#172033" flood-opacity="0.10" result="shadowColor" />
      <feComposite in="shadowColor" in2="offsetBlur" operator="in" result="shadow" />
      <feMerge><feMergeNode in="shadow" /><feMergeNode in="SourceGraphic" /></feMerge>
    </filter>
    <marker id="arrow" markerWidth="10" markerHeight="10" refX="9" refY="5" orient="auto">
      <path d="M0,0 L10,5 L0,10 Z" fill="#0F766E" />
    </marker>
  </defs>
  <g id="background">
    <rect width="1280" height="720" fill="#F8FAFC" />
    <circle cx="1116" cy="132" r="168" fill="#E0F2FE" />
    <circle cx="1116" cy="132" r="104" fill="#CCFBF1" fill-opacity="0.85" />
    <path fill="url(#tealBlue)" d="M64,54 H142 A4,4 0 0 1 146,58 V58 A4,4 0 0 1 142,62 H64 A4,4 0 0 1 60,58 V58 A4,4 0 0 1 64,54 Z" />
  </g>
  <g id="title-block">
    <text x="92" y="188" font-family="&quot;Microsoft YaHei&quot;, Arial, sans-serif" font-size="64" font-weight="800" fill="#172033">SketchVoice</text>
    <text x="92" y="254" font-family="&quot;Microsoft YaHei&quot;, Arial, sans-serif" font-size="42" font-weight="800" fill="#155E75">语音 + 草图 → 科研方法图</text>
    <text x="96" y="314" font-family="&quot;Microsoft YaHei&quot;, Arial, sans-serif" font-size="24" fill="#475569">一个可演示的 AI 产品原型，也是一个可继续研究的多模态结构化任务</text>
    <path fill="#FFFFFF" stroke="#CBD5E1" filter="url(#softShadow)" d="M104,354 H808 A8,8 0 0 1 816,362 V396 A8,8 0 0 1 808,404 H104 A8,8 0 0 1 96,396 V362 A8,8 0 0 1 104,354 Z" />
    <text x="122" y="386" font-family="&quot;Microsoft YaHei&quot;, Arial, sans-serif" font-size="18" fill="#475569">把课堂、科研讨论和白板草稿，一键转化为可编辑、可展示、可讲解的结构化方法图</text>
  </g>
  <g id="flow-motif">
    <path fill="#FFFFFF" stroke="#CBD5E1" filter="url(#softShadow)" d="M798,228 H1120 A8,8 0 0 1 1128,236 V290 A8,8 0 0 1 1120,298 H798 A8,8 0 0 1 790,290 V236 A8,8 0 0 1 798,228 Z" />
    
  <g transform="translate(820.0, 246.0) scale(1.4166666666666667)" fill="none" stroke="#155E75" stroke-width="2">
    <path d="M4 20h4l10.5 -10.5a2.828 2.828 0 1 0 -4 -4l-10.5 10.5v4" />
    <path d="M13.5 6.5l4 4" />
  </g>
    <text x="874" y="273" font-family="&quot;Microsoft YaHei&quot;, Arial, sans-serif" font-size="20" font-weight="800" fill="#172033">手绘草图：空间结构</text>
    <path fill="#FFFFFF" stroke="#CBD5E1" filter="url(#softShadow)" d="M858,338 H1180 A8,8 0 0 1 1188,346 V400 A8,8 0 0 1 1180,408 H858 A8,8 0 0 1 850,400 V346 A8,8 0 0 1 858,338 Z" />
    
  <g transform="translate(880.0, 356.0) scale(1.4166666666666667)" fill="none" stroke="#0F766E" stroke-width="2">
    <path d="M9 5a3 3 0 0 1 3 -3a3 3 0 0 1 3 3v5a3 3 0 0 1 -3 3a3 3 0 0 1 -3 -3l0 -5" />
    <path d="M5 10a7 7 0 0 0 14 0" />
    <path d="M8 21l8 0" />
    <path d="M12 17l0 4" />
  </g>
    <text x="934" y="383" font-family="&quot;Microsoft YaHei&quot;, Arial, sans-serif" font-size="20" font-weight="800" fill="#172033">同步语音：语义锚点</text>
    <path fill="#155E75" filter="url(#softShadow)" d="M798,452 H1120 A8,8 0 0 1 1128,460 V522 A8,8 0 0 1 1120,530 H798 A8,8 0 0 1 790,522 V460 A8,8 0 0 1 798,452 Z" />
    
  <g transform="translate(820.0, 474.0) scale(1.4166666666666667)" fill="none" stroke="#FFFFFF" stroke-width="2">
    <path d="M6 9a6 6 0 1 0 12 0a6 6 0 0 0 -12 0" />
    <path d="M12 3c1.333 .333 2 2.333 2 6s-.667 5.667 -2 6" />
    <path d="M12 3c-1.333 .333 -2 2.333 -2 6s.667 5.667 2 6" />
    <path d="M6 9h12" />
    <path d="M3 20h7" />
    <path d="M14 20h7" />
    <path d="M10 20a2 2 0 1 0 4 0a2 2 0 0 0 -4 0" />
    <path d="M12 15v3" />
  </g>
    <text x="874" y="501" font-family="&quot;Microsoft YaHei&quot;, Arial, sans-serif" font-size="21" font-weight="800" fill="#FFFFFF">结构化知识图资产</text>
    <path d="M 958 302 L 958 333" fill="none" stroke="#0F766E" stroke-width="3" stroke-dasharray="7,6" marker-end="url(#arrow)" />
    <path d="M 958 412 L 958 447" fill="none" stroke="#0F766E" stroke-width="3" stroke-dasharray="7,6" marker-end="url(#arrow)" />
  </g>
  <g id="footer">
    <text x="92" y="650" font-family="&quot;Microsoft YaHei&quot;, Arial, sans-serif" font-size="15" fill="#94A3B8">语音信息处理课程结项答辩 · 2026</text>
    <text x="1188" y="650" text-anchor="end" font-family="&quot;Microsoft YaHei&quot;, Arial, sans-serif" font-size="12" fill="#94A3B8">01 / 14</text>
  </g>
</svg>