<svg xmlns="http://www.w3.org/2000/svg" viewBox="0 0 1280 720" width="1280" height="720">
  <defs>
    <filter id="softShadow" x="-12%" y="-12%" width="124%" height="124%">
      <feGaussianBlur in="SourceAlpha" stdDeviation="5" />
      <feOffset dx="0" dy="3" result="offsetBlur" />
      <feFlood flood-color="#172033" flood-opacity="0.08" result="shadowColor" />
      <feComposite in="shadowColor" in2="offsetBlur" operator="in" result="shadow" />
      <feMerge><feMergeNode in="shadow" /><feMergeNode in="SourceGraphic" /></feMerge>
    </filter>
  </defs>
  <g id="background">
    <rect width="1280" height="720" fill="#F8FAFC" />
  </g>
  <g id="header">
    <text x="60" y="70" font-family="&quot;Microsoft YaHei&quot;, Arial, sans-serif" font-size="36" font-weight="800" fill="#172033">相关工作：三条路线都没有同时覆盖我们的场景</text>
    <text x="60" y="106" font-family="&quot;Microsoft YaHei&quot;, Arial, sans-serif" font-size="18" fill="#475569">研究空白不在“能不能生成图”，而在同步语音反馈、可编辑结构表示和用户修改成本诊断的结合。</text>
  </g>
  <g id="routes">
    <g id="route-sketch">
      <path fill="#FFFFFF" stroke="#CBD5E1" filter="url(#softShadow)" d="M72,156 H416 A8,8 0 0 1 424,164 V460 A8,8 0 0 1 416,468 H72 A8,8 0 0 1 64,460 V164 A8,8 0 0 1 72,156 Z" />
      <path fill="#2563EB" d="M69,156 H419 A5,5 0 0 1 424,161 V161 A5,5 0 0 1 419,166 H69 A5,5 0 0 1 64,161 V161 A5,5 0 0 1 69,156 Z" />
      
  <g transform="translate(96.0, 194.0) scale(1.6666666666666667)" fill="none" stroke="#2563EB" stroke-width="2">
    <path d="M4 20h4l10.5 -10.5a2.828 2.828 0 1 0 -4 -4l-10.5 10.5v4" />
    <path d="M13.5 6.5l4 4" />
  </g>
      <text x="154" y="220" font-family="&quot;Microsoft YaHei&quot;, Arial, sans-serif" font-size="24" font-weight="800" fill="#172033">草图 → 结构图</text>
      <text x="96" y="268" font-family="&quot;Microsoft YaHei&quot;, Arial, sans-serif" font-size="18" font-weight="800" fill="#155E75">代表问题</text>
      <text x="96" y="300" font-family="&quot;Microsoft YaHei&quot;, Arial, sans-serif" font-size="16" fill="#475569">SketchAgent / Sketch2Diagram</text>
      <text x="96" y="332" font-family="&quot;Microsoft YaHei&quot;, Arial, sans-serif" font-size="16" fill="#475569">关注手绘草图到机器可读图。</text>
      <line x1="96" y1="360" x2="392" y2="360" stroke="#CBD5E1" />
      <text x="96" y="394" font-family="&quot;Microsoft YaHei&quot;, Arial, sans-serif" font-size="18" font-weight="800" fill="#F59E0B">缺口</text>
      <text x="96" y="426" font-family="&quot;Microsoft YaHei&quot;, Arial, sans-serif" font-size="16" fill="#475569">主要依赖视觉草图，较少建模</text>
      <text x="96" y="452" font-family="&quot;Microsoft YaHei&quot;, Arial, sans-serif" font-size="16" fill="#475569">同步语音带来的语义反馈。</text>
    </g>
    <g id="route-code">
      <path fill="#FFFFFF" stroke="#CBD5E1" filter="url(#softShadow)" d="M468,156 H812 A8,8 0 0 1 820,164 V460 A8,8 0 0 1 812,468 H468 A8,8 0 0 1 460,460 V164 A8,8 0 0 1 468,156 Z" />
      <path fill="#0F766E" d="M465,156 H815 A5,5 0 0 1 820,161 V161 A5,5 0 0 1 815,166 H465 A5,5 0 0 1 460,161 V161 A5,5 0 0 1 465,156 Z" />
      
  <g transform="translate(492.0, 194.0) scale(1.6666666666666667)" fill="none" stroke="#0F766E" stroke-width="2">
    <path d="M7 8l-4 4l4 4" />
    <path d="M17 8l4 4l-4 4" />
    <path d="M14 4l-4 16" />
  </g>
      <text x="550" y="220" font-family="&quot;Microsoft YaHei&quot;, Arial, sans-serif" font-size="24" font-weight="800" fill="#172033">图像 → 可编辑代码</text>
      <text x="492" y="268" font-family="&quot;Microsoft YaHei&quot;, Arial, sans-serif" font-size="18" font-weight="800" fill="#155E75">代表问题</text>
      <text x="492" y="300" font-family="&quot;Microsoft YaHei&quot;, Arial, sans-serif" font-size="16" fill="#475569">Flowchart2Mermaid</text>
      <text x="492" y="332" font-family="&quot;Microsoft YaHei&quot;, Arial, sans-serif" font-size="16" fill="#475569">强调输出 Mermaid 等结构化表示。</text>
      <line x1="492" y1="360" x2="788" y2="360" stroke="#CBD5E1" />
      <text x="492" y="394" font-family="&quot;Microsoft YaHei&quot;, Arial, sans-serif" font-size="18" font-weight="800" fill="#F59E0B">缺口</text>
      <text x="492" y="426" font-family="&quot;Microsoft YaHei&quot;, Arial, sans-serif" font-size="16" fill="#475569">多处理已有静态流程图，难覆盖</text>
      <text x="492" y="452" font-family="&quot;Microsoft YaHei&quot;, Arial, sans-serif" font-size="16" fill="#475569">实时草图与口头讲述的开放场景。</text>
    </g>
    <g id="route-bridge">
      <path fill="#FFFFFF" stroke="#CBD5E1" filter="url(#softShadow)" d="M864,156 H1208 A8,8 0 0 1 1216,164 V460 A8,8 0 0 1 1208,468 H864 A8,8 0 0 1 856,460 V164 A8,8 0 0 1 864,156 Z" />
      <path fill="#F59E0B" d="M861,156 H1211 A5,5 0 0 1 1216,161 V161 A5,5 0 0 1 1211,166 H861 A5,5 0 0 1 856,161 V161 A5,5 0 0 1 861,156 Z" />
      
  <g transform="translate(888.0, 194.0) scale(1.6666666666666667)" fill="none" stroke="#F59E0B" stroke-width="2">
    <path d="M5 18a2 2 0 1 0 4 0a2 2 0 1 0 -4 0" />
    <path d="M5 6a2 2 0 1 0 4 0a2 2 0 1 0 -4 0" />
    <path d="M15 6a2 2 0 1 0 4 0a2 2 0 1 0 -4 0" />
    <path d="M7 8l0 8" />
    <path d="M9 18h6a2 2 0 0 0 2 -2v-5" />
    <path d="M14 14l3 -3l3 3" />
  </g>
      <text x="946" y="220" font-family="&quot;Microsoft YaHei&quot;, Arial, sans-serif" font-size="24" font-weight="800" fill="#172033">图结构桥 / SB</text>
      <text x="888" y="268" font-family="&quot;Microsoft YaHei&quot;, Arial, sans-serif" font-size="18" font-weight="800" fill="#155E75">理论启发</text>
      <text x="888" y="300" font-family="&quot;Microsoft YaHei&quot;, Arial, sans-serif" font-size="16" fill="#475569">Schrödinger Bridge / DDSBM</text>
      <text x="888" y="332" font-family="&quot;Microsoft YaHei&quot;, Arial, sans-serif" font-size="16" fill="#475569">把生成看成分布间动态迁移。</text>
      <line x1="888" y1="360" x2="1184" y2="360" stroke="#CBD5E1" />
      <text x="888" y="394" font-family="&quot;Microsoft YaHei&quot;, Arial, sans-serif" font-size="18" font-weight="800" fill="#F59E0B">迁移点</text>
      <text x="888" y="426" font-family="&quot;Microsoft YaHei&quot;, Arial, sans-serif" font-size="16" fill="#475569">我们不是像素级扩散，而是在</text>
      <text x="888" y="452" font-family="&quot;Microsoft YaHei&quot;, Arial, sans-serif" font-size="16" fill="#475569">离散知识图空间做编辑迁移。</text>
    </g>
  </g>
  <g id="position">
    <path fill="#155E75" filter="url(#softShadow)" d="M126,522 H1154 A8,8 0 0 1 1162,530 V600 A8,8 0 0 1 1154,608 H126 A8,8 0 0 1 118,600 V530 A8,8 0 0 1 126,522 Z" />
    <text x="640" y="556" text-anchor="middle" font-family="&quot;Microsoft YaHei&quot;, Arial, sans-serif" font-size="23" font-weight="800" fill="#FFFFFF">我们的切入点：Sketch + Speech → Structured Knowledge Graph → Graph Editing Diagnosis</text>
    <text x="640" y="590" text-anchor="middle" font-family="&quot;Microsoft YaHei&quot;, Arial, sans-serif" font-size="17" fill="#E0F2FE">补上同步语音反馈，并把最终结果和用户修改成本都放进可评测的图编辑路径中。</text>
  </g>
  <g id="footer">
    <text x="60" y="680" font-family="&quot;Microsoft YaHei&quot;, Arial, sans-serif" font-size="12" fill="#94A3B8">SketchVoice · Related Work Gap</text>
    <text x="1220" y="680" text-anchor="end" font-family="&quot;Microsoft YaHei&quot;, Arial, sans-serif" font-size="12" fill="#94A3B8">08 / 14</text>
  </g>
</svg>