<svg xmlns="http://www.w3.org/2000/svg" viewBox="0 0 1280 720" width="1280" height="720">
  <defs>
    <filter id="softShadow" x="-12%" y="-12%" width="124%" height="124%">
      <feGaussianBlur in="SourceAlpha" stdDeviation="5" />
      <feOffset dx="0" dy="3" result="offsetBlur" />
      <feFlood flood-color="#172033" flood-opacity="0.08" result="shadowColor" />
      <feComposite in="shadowColor" in2="offsetBlur" operator="in" result="shadow" />
      <feMerge><feMergeNode in="shadow" /><feMergeNode in="SourceGraphic" /></feMerge>
    </filter>
  </defs>
  <g id="background">
    <rect width="1280" height="720" fill="#F8FAFC" />
  </g>
  <g id="header">
    <text x="60" y="72" font-family="&quot;Microsoft YaHei&quot;, Arial, sans-serif" font-size="36" font-weight="800" fill="#172033">真实性边界：当前是可控验证，不是大规模宣称</text>
    <text x="60" y="106" font-family="&quot;Microsoft YaHei&quot;, Arial, sans-serif" font-size="18" fill="#475569">产品原型已经跑通闭环，但科研结论需要限定在合成条件图的验证范围内。</text>
  </g>
  <g id="boundary-panel">
    <path fill="#FFFFFF" stroke="#CBD5E1" filter="url(#softShadow)" d="M68,154 H508 A8,8 0 0 1 516,162 V556 A8,8 0 0 1 508,564 H68 A8,8 0 0 1 60,556 V162 A8,8 0 0 1 68,154 Z" />
    <path fill="#FEF3C7" d="M100,190 H216 A8,8 0 0 1 224,198 V218 A8,8 0 0 1 216,226 H100 A8,8 0 0 1 92,218 V198 A8,8 0 0 1 100,190 Z" />
    <text x="158" y="214" text-anchor="middle" font-family="&quot;Microsoft YaHei&quot;, Arial, sans-serif" font-size="17" font-weight="800" fill="#F59E0B">边界说明</text>
    <text x="92" y="284" font-family="&quot;Microsoft YaHei&quot;, Arial, sans-serif" font-size="34" font-weight="800" fill="#155E75">讲清楚边界，</text>
    <text x="92" y="328" font-family="&quot;Microsoft YaHei&quot;, Arial, sans-serif" font-size="34" font-weight="800" fill="#155E75">反而让产品故事更可信</text>
    <line x1="92" y1="366" x2="460" y2="366" stroke="#CBD5E1" />
    <text x="92" y="416" font-family="&quot;Microsoft YaHei&quot;, Arial, sans-serif" font-size="20" font-weight="800" fill="#172033">当前定位</text>
    <text x="92" y="452" font-family="&quot;Microsoft YaHei&quot;, Arial, sans-serif" font-size="18" fill="#475569">SketchVoice 是可演示、可导出、可评测的</text>
    <text x="92" y="482" font-family="&quot;Microsoft YaHei&quot;, Arial, sans-serif" font-size="18" fill="#475569">课程项目原型。</text>
    <text x="92" y="528" font-family="&quot;Microsoft YaHei&quot;, Arial, sans-serif" font-size="18" fill="#475569">MMSB-Graph 当前验证的是结构恢复链路</text>
    <text x="92" y="558" font-family="&quot;Microsoft YaHei&quot;, Arial, sans-serif" font-size="18" fill="#475569">和图编辑路径的可计算性。</text>
  </g>
  <g id="vertical-list">
    <path fill="#FFFFFF" stroke="#CBD5E1" filter="url(#softShadow)" d="M580,154 H1212 A8,8 0 0 1 1220,162 V556 A8,8 0 0 1 1212,564 H580 A8,8 0 0 1 572,556 V162 A8,8 0 0 1 580,154 Z" />
    <g id="item-can">
      <circle cx="632" cy="226" r="28" fill="#CCFBF1" />
      
  <g transform="translate(614.0, 208.0) scale(1.5)" fill="none" stroke="#0F766E" stroke-width="2">
    <path d="M20 8.04l-12.122 12.124a2.857 2.857 0 1 1 -4.041 -4.04l12.122 -12.124" />
    <path d="M7 13h8" />
    <path d="M19 15l1.5 1.6a2 2 0 1 1 -3 0l1.5 -1.6" />
    <path d="M15 3l6 6" />
  </g>
      <text x="686" y="218" font-family="&quot;Microsoft YaHei&quot;, Arial, sans-serif" font-size="21" font-weight="800" fill="#172033">当前能说明</text>
      <text x="686" y="252" font-family="&quot;Microsoft YaHei&quot;, Arial, sans-serif" font-size="17" fill="#475569">任务定义成立，评测链路可运行，图编辑过程可计算。</text>
    </g>
    <line x1="632" y1="268" x2="632" y2="322" stroke="#CBD5E1" stroke-width="2" />
    <g id="item-cannot">
      <circle cx="632" cy="350" r="28" fill="#FEF3C7" />
      
  <g transform="translate(614.0, 332.0) scale(1.5)" fill="none" stroke="#F59E0B" stroke-width="2">
    <path d="M3 3v18h18" />
    <path d="M7 9a2 2 0 1 0 4 0a2 2 0 1 0 -4 0" />
    <path d="M17 7a2 2 0 1 0 4 0a2 2 0 1 0 -4 0" />
    <path d="M12 15a2 2 0 1 0 4 0a2 2 0 1 0 -4 0" />
    <path d="M10.16 10.62l2.34 2.88" />
    <path d="M15.088 13.328l2.837 -4.586" />
  </g>
      <text x="686" y="342" font-family="&quot;Microsoft YaHei&quot;, Arial, sans-serif" font-size="21" font-weight="800" fill="#172033">不能直接说明</text>
      <text x="686" y="376" font-family="&quot;Microsoft YaHei&quot;, Arial, sans-serif" font-size="17" fill="#475569">大规模真实世界性能、复杂手写图鲁棒性、长期用户成本。</text>
    </g>
    <line x1="632" y1="392" x2="632" y2="446" stroke="#CBD5E1" stroke-width="2" />
    <g id="item-next">
      <circle cx="632" cy="474" r="28" fill="#E0F2FE" />
      
  <g transform="translate(614.0, 456.0) scale(1.5)" fill="none" stroke="#2563EB" stroke-width="2">
    <path d="M3 12h1m8 -9v1m8 8h1m-15.4 -6.4l.7 .7m12.1 -.7l-.7 .7" />
    <path d="M9 16a5 5 0 1 1 6 0a3.5 3.5 0 0 0 -1 3a2 2 0 0 1 -4 0a3.5 3.5 0 0 0 -1 -3" />
    <path d="M9.7 17l4.6 0" />
  </g>
      <text x="686" y="466" font-family="&quot;Microsoft YaHei&quot;, Arial, sans-serif" font-size="21" font-weight="800" fill="#172033">下一步产品化验证</text>
      <text x="686" y="500" font-family="&quot;Microsoft YaHei&quot;, Arial, sans-serif" font-size="17" fill="#475569">接入真实用户数据，记录人工修改，形成产品反馈指标。</text>
    </g>
  </g>
  <g id="takeaway">
    <path fill="#155E75" d="M174,604 H1106 A8,8 0 0 1 1114,612 V642 A8,8 0 0 1 1106,650 H174 A8,8 0 0 1 166,642 V612 A8,8 0 0 1 174,604 Z" />
    <text x="640" y="634" text-anchor="middle" font-family="&quot;Microsoft YaHei&quot;, Arial, sans-serif" font-size="19" font-weight="800" fill="#FFFFFF">结论：本项目证明了“产品闭环 + 结构恢复方法 + 可评测协议”可以被完整打通。</text>
  </g>
  <g id="footer">
    <text x="60" y="680" font-family="&quot;Microsoft YaHei&quot;, Arial, sans-serif" font-size="12" fill="#94A3B8">SketchVoice 路 Boundary</text>
    <text x="1220" y="680" text-anchor="end" font-family="&quot;Microsoft YaHei&quot;, Arial, sans-serif" font-size="12" fill="#94A3B8">13 / 14</text>
  </g>
</svg>