<svg xmlns="http://www.w3.org/2000/svg" viewBox="0 0 1280 720" width="1280" height="720">
  <defs>
    <filter id="softShadow" x="-12%" y="-12%" width="124%" height="124%">
      <feGaussianBlur in="SourceAlpha" stdDeviation="6" />
      <feOffset dx="0" dy="3" result="offsetBlur" />
      <feFlood flood-color="#172033" flood-opacity="0.09" result="shadowColor" />
      <feComposite in="shadowColor" in2="offsetBlur" operator="in" result="shadow" />
      <feMerge><feMergeNode in="shadow" /><feMergeNode in="SourceGraphic" /></feMerge>
    </filter>
    <marker id="arrowEnd" markerWidth="10" markerHeight="10" refX="9" refY="5" orient="auto">
      <path d="M0,0 L10,5 L0,10 Z" fill="#0F766E" />
    </marker>
  </defs>
  <g id="background">
    <rect width="1280" height="720" fill="#F8FAFC" />
    <rect x="0" y="0" width="1280" height="18" fill="#155E75" />
  </g>
  <g id="hero-summary">
    <text x="640" y="110" text-anchor="middle" font-family="&quot;Microsoft YaHei&quot;, Arial, sans-serif" font-size="44" font-weight="800" fill="#172033">总结：产品闭环 + 方法支撑 + 可评测系统</text>
    <text x="640" y="154" text-anchor="middle" font-family="&quot;Microsoft YaHei&quot;, Arial, sans-serif" font-size="20" fill="#475569">SketchVoice 将“语音 + 草图”的自然表达过程，转化为可编辑、可导出、可评价的知识图。</text>
  </g>
  <g id="product-flow">
    <path fill="#FFFFFF" stroke="#CBD5E1" filter="url(#softShadow)" d="M216,202 H1064 A8,8 0 0 1 1072,210 V288 A8,8 0 0 1 1064,296 H216 A8,8 0 0 1 208,288 V210 A8,8 0 0 1 216,202 Z" />
    <g id="flow-input">
      <circle cx="292" cy="249" r="28" fill="#CCFBF1" />
      
  <g transform="translate(274.0, 231.0) scale(1.5)" fill="none" stroke="#0F766E" stroke-width="2">
    <path d="M9 5a3 3 0 0 1 3 -3a3 3 0 0 1 3 3v5a3 3 0 0 1 -3 3a3 3 0 0 1 -3 -3l0 -5" />
    <path d="M5 10a7 7 0 0 0 14 0" />
    <path d="M8 21l8 0" />
    <path d="M12 17l0 4" />
  </g>
      <text x="342" y="256" font-family="&quot;Microsoft YaHei&quot;, Arial, sans-serif" font-size="19" font-weight="800" fill="#172033">说清语义</text>
    </g>
    <path d="M 450 249 L 530 249" fill="none" stroke="#0F766E" stroke-width="3" marker-end="url(#arrowEnd)" />
    <g id="flow-structure">
      <circle cx="586" cy="249" r="28" fill="#E0F2FE" />
      
  <g transform="translate(568.0, 231.0) scale(1.5)" fill="none" stroke="#2563EB" stroke-width="2">
    <path d="M6 9a6 6 0 1 0 12 0a6 6 0 0 0 -12 0" />
    <path d="M12 3c1.333 .333 2 2.333 2 6s-.667 5.667 -2 6" />
    <path d="M12 3c-1.333 .333 -2 2.333 -2 6s.667 5.667 2 6" />
    <path d="M6 9h12" />
    <path d="M3 20h7" />
    <path d="M14 20h7" />
    <path d="M10 20a2 2 0 1 0 4 0a2 2 0 0 0 -4 0" />
    <path d="M12 15v3" />
  </g>
      <text x="636" y="256" font-family="&quot;Microsoft YaHei&quot;, Arial, sans-serif" font-size="19" font-weight="800" fill="#172033">恢复结构</text>
    </g>
    <path d="M 742 249 L 822 249" fill="none" stroke="#0F766E" stroke-width="3" marker-end="url(#arrowEnd)" />
    <g id="flow-output">
      <circle cx="878" cy="249" r="28" fill="#DCFCE7" />
      
  <g transform="translate(860.0, 231.0) scale(1.5)" fill="none" stroke="#16A34A" stroke-width="2">
    <path d="M14 3v4a1 1 0 0 0 1 1h4" />
    <path d="M11.5 21h-4.5a2 2 0 0 1 -2 -2v-14a2 2 0 0 1 2 -2h7l5 5v5m-5 6h7m-3 -3l3 3l-3 3" />
  </g>
      <text x="928" y="256" font-family="&quot;Microsoft YaHei&quot;, Arial, sans-serif" font-size="19" font-weight="800" fill="#172033">交付结果</text>
    </g>
  </g>
  <g id="contributions">
    <g id="contribution-product">
      <path fill="#FFFFFF" stroke="#CBD5E1" filter="url(#softShadow)" d="M92,346 H418 A8,8 0 0 1 426,354 V534 A8,8 0 0 1 418,542 H92 A8,8 0 0 1 84,534 V354 A8,8 0 0 1 92,346 Z" />
      
  <g transform="translate(112.0, 374.0) scale(1.6666666666666667)" fill="none" stroke="#155E75" stroke-width="2">
    <path d="M3 5a1 1 0 0 1 1 -1h16a1 1 0 0 1 1 1v10a1 1 0 0 1 -1 1h-16a1 1 0 0 1 -1 -1v-10" />
    <path d="M7 20h10" />
    <path d="M9 16v4" />
    <path d="M15 16v4" />
  </g>
      <text x="170" y="404" font-family="&quot;Microsoft YaHei&quot;, Arial, sans-serif" font-size="24" font-weight="800" fill="#172033">产品层</text>
      <text x="112" y="458" font-family="&quot;Microsoft YaHei&quot;, Arial, sans-serif" font-size="18" fill="#475569">构建 SketchVoice 方法图工作台，</text>
      <text x="112" y="490" font-family="&quot;Microsoft YaHei&quot;, Arial, sans-serif" font-size="18" fill="#475569">支持草图、语音、文本到图结构的</text>
      <text x="112" y="522" font-family="&quot;Microsoft YaHei&quot;, Arial, sans-serif" font-size="18" fill="#475569">连续交互与导出。</text>
    </g>
    <g id="contribution-method">
      <path fill="#FFFFFF" stroke="#CBD5E1" filter="url(#softShadow)" d="M477,346 H803 A8,8 0 0 1 811,354 V534 A8,8 0 0 1 803,542 H477 A8,8 0 0 1 469,534 V354 A8,8 0 0 1 477,346 Z" />
      
  <g transform="translate(497.0, 374.0) scale(1.6666666666666667)" fill="none" stroke="#0F766E" stroke-width="2">
    <path d="M5 18a2 2 0 1 0 4 0a2 2 0 1 0 -4 0" />
    <path d="M5 6a2 2 0 1 0 4 0a2 2 0 1 0 -4 0" />
    <path d="M15 6a2 2 0 1 0 4 0a2 2 0 1 0 -4 0" />
    <path d="M7 8l0 8" />
    <path d="M9 18h6a2 2 0 0 0 2 -2v-5" />
    <path d="M14 14l3 -3l3 3" />
  </g>
      <text x="555" y="404" font-family="&quot;Microsoft YaHei&quot;, Arial, sans-serif" font-size="24" font-weight="800" fill="#172033">方法层</text>
      <text x="497" y="458" font-family="&quot;Microsoft YaHei&quot;, Arial, sans-serif" font-size="18" fill="#475569">提出语音引导知识草图结构化任务，</text>
      <text x="497" y="490" font-family="&quot;Microsoft YaHei&quot;, Arial, sans-serif" font-size="18" fill="#475569">用 MMSB-Graph 将生成问题转化为</text>
      <text x="497" y="522" font-family="&quot;Microsoft YaHei&quot;, Arial, sans-serif" font-size="18" fill="#475569">可解释图编辑路径。</text>
    </g>
    <g id="contribution-system">
      <path fill="#FFFFFF" stroke="#CBD5E1" filter="url(#softShadow)" d="M862,346 H1188 A8,8 0 0 1 1196,354 V534 A8,8 0 0 1 1188,542 H862 A8,8 0 0 1 854,534 V354 A8,8 0 0 1 862,346 Z" />
      
  <g transform="translate(882.0, 374.0) scale(1.6666666666666667)" fill="none" stroke="#2563EB" stroke-width="2">
    <path d="M3 3v18h18" />
    <path d="M7 9a2 2 0 1 0 4 0a2 2 0 1 0 -4 0" />
    <path d="M17 7a2 2 0 1 0 4 0a2 2 0 1 0 -4 0" />
    <path d="M12 15a2 2 0 1 0 4 0a2 2 0 1 0 -4 0" />
    <path d="M10.16 10.62l2.34 2.88" />
    <path d="M15.088 13.328l2.837 -4.586" />
  </g>
      <text x="940" y="404" font-family="&quot;Microsoft YaHei&quot;, Arial, sans-serif" font-size="24" font-weight="800" fill="#172033">系统层</text>
      <text x="882" y="458" font-family="&quot;Microsoft YaHei&quot;, Arial, sans-serif" font-size="18" fill="#475569">打通输入、生成、展示、导出、评测</text>
      <text x="882" y="490" font-family="&quot;Microsoft YaHei&quot;, Arial, sans-serif" font-size="18" fill="#475569">闭环，让产品结果可以被复用，</text>
      <text x="882" y="522" font-family="&quot;Microsoft YaHei&quot;, Arial, sans-serif" font-size="18" fill="#475569">也可以被指标检验。</text>
    </g>
  </g>
  <g id="closing-line">
    <path fill="#155E75" d="M178,588 H1102 A8,8 0 0 1 1110,596 V630 A8,8 0 0 1 1102,638 H178 A8,8 0 0 1 170,630 V596 A8,8 0 0 1 178,588 Z" />
    <text x="640" y="620" text-anchor="middle" font-family="&quot;Microsoft YaHei&quot;, Arial, sans-serif" font-size="20" font-weight="800" fill="#FFFFFF">一句话：把“边说边画”变成结构化知识资产，并给出可解释的恢复路径。</text>
  </g>
  <g id="footer">
    <text x="60" y="680" font-family="&quot;Microsoft YaHei&quot;, Arial, sans-serif" font-size="12" fill="#94A3B8">SketchVoice 路 Conclusion</text>
    <text x="1220" y="680" text-anchor="end" font-family="&quot;Microsoft YaHei&quot;, Arial, sans-serif" font-size="12" fill="#94A3B8">14 / 14</text>
  </g>
</svg>