<svg xmlns="http://www.w3.org/2000/svg" viewBox="0 0 1280 720" width="1280" height="720">
  <defs>
    <filter id="softShadow" x="-12%" y="-12%" width="124%" height="124%">
      <feGaussianBlur in="SourceAlpha" stdDeviation="6" />
      <feOffset dx="0" dy="4" result="offsetBlur" />
      <feFlood flood-color="#172033" flood-opacity="0.09" result="shadowColor" />
      <feComposite in="shadowColor" in2="offsetBlur" operator="in" result="shadow" />
      <feMerge><feMergeNode in="shadow" /><feMergeNode in="SourceGraphic" /></feMerge>
    </filter>
    <marker id="arrowEnd" markerWidth="10" markerHeight="10" refX="9" refY="5" orient="auto">
      <path d="M0,0 L10,5 L0,10 Z" fill="#0F766E" />
    </marker>
  </defs>
  <g id="background">
    <rect width="1280" height="720" fill="#F8FAFC" />
    <rect x="0" y="0" width="1280" height="18" fill="#155E75" />
  </g>
  <g id="hero">
    <text x="640" y="86" text-anchor="middle" font-family="&quot;Microsoft YaHei&quot;, Arial, sans-serif" font-size="40" font-weight="800" fill="#172033">总结：把自然表达升级为可研究的知识结构生产线</text>
    <text x="640" y="124" text-anchor="middle" font-family="&quot;Microsoft YaHei&quot;, Arial, sans-serif" font-size="19" fill="#475569">SketchVoice 不是单点 demo，而是“应用闭环 + 科研模型 + 评测协议 + 可解释诊断”的完整链路。</text>
  </g>
  <g id="central-claim">
    <path fill="#155E75" filter="url(#softShadow)" d="M158,156 H1122 A8,8 0 0 1 1130,164 V230 A8,8 0 0 1 1122,238 H158 A8,8 0 0 1 150,230 V164 A8,8 0 0 1 158,156 Z" />
    
  <g transform="translate(190.0, 177.0) scale(1.6666666666666667)" fill="none" stroke="#FFFFFF" stroke-width="2">
    <path d="M3 12h1m8 -9v1m8 8h1m-15.4 -6.4l.7 .7m12.1 -.7l-.7 .7" />
    <path d="M9 16a5 5 0 1 1 6 0a3.5 3.5 0 0 0 -1 3a2 2 0 0 1 -4 0a3.5 3.5 0 0 0 -1 -3" />
    <path d="M9.7 17l4.6 0" />
  </g>
    <text x="250" y="191" font-family="&quot;Microsoft YaHei&quot;, Arial, sans-serif" font-size="24" font-weight="800" fill="#FFFFFF">一句话结论</text>
    <text x="250" y="219" font-family="&quot;Microsoft YaHei&quot;, Arial, sans-serif" font-size="18" fill="#E0F2FE">我们把“边说边画”的低结构表达，转化为可编辑、可导出、可评测、可诊断的多模态科研表达基础设施。</text>
  </g>
  <g id="value-dimensions">
    <g id="value-product">
      <path fill="#FFFFFF" stroke="#CBD5E1" filter="url(#softShadow)" d="M78,292 H274 A8,8 0 0 1 282,300 V462 A8,8 0 0 1 274,470 H78 A8,8 0 0 1 70,462 V300 A8,8 0 0 1 78,292 Z" />
      
  <g transform="translate(94.0, 316.0) scale(1.5)" fill="none" stroke="#2563EB" stroke-width="2">
    <path d="M3 5a1 1 0 0 1 1 -1h16a1 1 0 0 1 1 1v10a1 1 0 0 1 -1 1h-16a1 1 0 0 1 -1 -1v-10" />
    <path d="M7 20h10" />
    <path d="M9 16v4" />
    <path d="M15 16v4" />
  </g>
      <text x="94" y="382" font-family="&quot;Microsoft YaHei&quot;, Arial, sans-serif" font-size="21" font-weight="800" fill="#172033">产品价值</text>
      <text x="94" y="418" font-family="&quot;Microsoft YaHei&quot;, Arial, sans-serif" font-size="15" fill="#475569">完成可操作工作台，</text>
      <text x="94" y="444" font-family="&quot;Microsoft YaHei&quot;, Arial, sans-serif" font-size="15" fill="#475569">覆盖输入、预览、下载、讲解。</text>
    </g>
    <g id="value-research">
      <path fill="#FFFFFF" stroke="#CBD5E1" filter="url(#softShadow)" d="M314,292 H510 A8,8 0 0 1 518,300 V462 A8,8 0 0 1 510,470 H314 A8,8 0 0 1 306,462 V300 A8,8 0 0 1 314,292 Z" />
      
  <g transform="translate(330.0, 316.0) scale(1.5)" fill="none" stroke="#0F766E" stroke-width="2">
    <path d="M5 18a2 2 0 1 0 4 0a2 2 0 1 0 -4 0" />
    <path d="M5 6a2 2 0 1 0 4 0a2 2 0 1 0 -4 0" />
    <path d="M15 6a2 2 0 1 0 4 0a2 2 0 1 0 -4 0" />
    <path d="M7 8l0 8" />
    <path d="M9 18h6a2 2 0 0 0 2 -2v-5" />
    <path d="M14 14l3 -3l3 3" />
  </g>
      <text x="330" y="382" font-family="&quot;Microsoft YaHei&quot;, Arial, sans-serif" font-size="21" font-weight="800" fill="#172033">科研价值</text>
      <text x="330" y="418" font-family="&quot;Microsoft YaHei&quot;, Arial, sans-serif" font-size="15" fill="#475569">定义语音引导知识草图</text>
      <text x="330" y="444" font-family="&quot;Microsoft YaHei&quot;, Arial, sans-serif" font-size="15" fill="#475569">结构化与 MMSB-Graph。</text>
    </g>
    <g id="value-eval">
      <path fill="#FFFFFF" stroke="#CBD5E1" filter="url(#softShadow)" d="M550,292 H746 A8,8 0 0 1 754,300 V462 A8,8 0 0 1 746,470 H550 A8,8 0 0 1 542,462 V300 A8,8 0 0 1 550,292 Z" />
      
  <g transform="translate(566.0, 316.0) scale(1.5)" fill="none" stroke="#16A34A" stroke-width="2">
    <path d="M3 3v18h18" />
    <path d="M7 9a2 2 0 1 0 4 0a2 2 0 1 0 -4 0" />
    <path d="M17 7a2 2 0 1 0 4 0a2 2 0 1 0 -4 0" />
    <path d="M12 15a2 2 0 1 0 4 0a2 2 0 1 0 -4 0" />
    <path d="M10.16 10.62l2.34 2.88" />
    <path d="M15.088 13.328l2.837 -4.586" />
  </g>
      <text x="566" y="382" font-family="&quot;Microsoft YaHei&quot;, Arial, sans-serif" font-size="21" font-weight="800" fill="#172033">评测价值</text>
      <text x="566" y="418" font-family="&quot;Microsoft YaHei&quot;, Arial, sans-serif" font-size="15" fill="#475569">24 个样例、对照基线、</text>
      <text x="566" y="444" font-family="&quot;Microsoft YaHei&quot;, Arial, sans-serif" font-size="15" fill="#475569">GED、F1、路径能量指标。</text>
    </g>
    <g id="value-engineering">
      <path fill="#FFFFFF" stroke="#CBD5E1" filter="url(#softShadow)" d="M786,292 H982 A8,8 0 0 1 990,300 V462 A8,8 0 0 1 982,470 H786 A8,8 0 0 1 778,462 V300 A8,8 0 0 1 786,292 Z" />
      
  <g transform="translate(802.0, 316.0) scale(1.5)" fill="none" stroke="#155E75" stroke-width="2">
    <path d="M3 7a3 3 0 0 1 3 -3h12a3 3 0 0 1 3 3v2a3 3 0 0 1 -3 3h-12a3 3 0 0 1 -3 -3" />
    <path d="M3 15a3 3 0 0 1 3 -3h12a3 3 0 0 1 3 3v2a3 3 0 0 1 -3 3h-12a3 3 0 0 1 -3 -3l0 -2" />
    <path d="M7 8l0 .01" />
    <path d="M7 16l0 .01" />
  </g>
      <text x="802" y="382" font-family="&quot;Microsoft YaHei&quot;, Arial, sans-serif" font-size="21" font-weight="800" fill="#172033">工程价值</text>
      <text x="802" y="418" font-family="&quot;Microsoft YaHei&quot;, Arial, sans-serif" font-size="15" fill="#475569">模型服务可替换，mock</text>
      <text x="802" y="444" font-family="&quot;Microsoft YaHei&quot;, Arial, sans-serif" font-size="15" fill="#475569">保障展示和复现实验。</text>
    </g>
    <g id="value-education">
      <path fill="#FFFFFF" stroke="#CBD5E1" filter="url(#softShadow)" d="M1022,292 H1202 A8,8 0 0 1 1210,300 V462 A8,8 0 0 1 1202,470 H1022 A8,8 0 0 1 1014,462 V300 A8,8 0 0 1 1022,292 Z" />
      
  <g transform="translate(1038.0, 316.0) scale(1.5)" fill="none" stroke="#F59E0B" stroke-width="2">
    <path d="M3 4l18 0" />
    <path d="M4 4v10a2 2 0 0 0 2 2h12a2 2 0 0 0 2 -2v-10" />
    <path d="M12 16l0 4" />
    <path d="M9 20l6 0" />
    <path d="M8 12l3 -3l2 2l3 -3" />
  </g>
      <text x="1038" y="382" font-family="&quot;Microsoft YaHei&quot;, Arial, sans-serif" font-size="21" font-weight="800" fill="#172033">表达价值</text>
      <text x="1038" y="418" font-family="&quot;Microsoft YaHei&quot;, Arial, sans-serif" font-size="15" fill="#475569">把课堂/科研讲解</text>
      <text x="1038" y="444" font-family="&quot;Microsoft YaHei&quot;, Arial, sans-serif" font-size="15" fill="#475569">沉淀为结构化资产。</text>
    </g>
  </g>
  <g id="future-line">
    <line x1="198" y1="500" x2="1070" y2="500" stroke="#0F766E" stroke-width="3" marker-end="url(#arrowEnd)" />
    <g id="future-1">
      <circle cx="250" cy="500" r="11" fill="#0F766E" />
      <text x="250" y="532" text-anchor="middle" font-family="&quot;Microsoft YaHei&quot;, Arial, sans-serif" font-size="14" font-weight="800" fill="#172033">真实用户数据</text>
    </g>
    <g id="future-2">
      <circle cx="472" cy="500" r="11" fill="#0F766E" />
      <text x="472" y="532" text-anchor="middle" font-family="&quot;Microsoft YaHei&quot;, Arial, sans-serif" font-size="14" font-weight="800" fill="#172033">草图解析增强</text>
    </g>
    <g id="future-3">
      <circle cx="694" cy="500" r="11" fill="#0F766E" />
      <text x="694" y="532" text-anchor="middle" font-family="&quot;Microsoft YaHei&quot;, Arial, sans-serif" font-size="14" font-weight="800" fill="#172033">编辑策略训练</text>
    </g>
    <g id="future-4">
      <circle cx="916" cy="500" r="11" fill="#0F766E" />
      <text x="916" y="532" text-anchor="middle" font-family="&quot;Microsoft YaHei&quot;, Arial, sans-serif" font-size="14" font-weight="800" fill="#172033">前端诊断反馈</text>
    </g>
  </g>
  <g id="closing">
    <path fill="#FFFFFF" stroke="#CBD5E1" d="M222,580 H1058 A8,8 0 0 1 1066,588 V624 A8,8 0 0 1 1058,632 H222 A8,8 0 0 1 214,624 V588 A8,8 0 0 1 222,580 Z" />
    <text x="640" y="613" text-anchor="middle" font-family="&quot;Microsoft YaHei&quot;, Arial, sans-serif" font-size="19" font-weight="800" fill="#155E75">所以，这个项目既有能演示的应用成果，也有可继续深化的科研问题和实验框架。</text>
  </g>
  <g id="footer">
    <text x="60" y="680" font-family="&quot;Microsoft YaHei&quot;, Arial, sans-serif" font-size="12" fill="#94A3B8">SketchVoice · Conclusion</text>
    <text x="1220" y="680" text-anchor="end" font-family="&quot;Microsoft YaHei&quot;, Arial, sans-serif" font-size="12" fill="#94A3B8">14 / 14</text>
  </g>
</svg>