<svg xmlns="http://www.w3.org/2000/svg" viewBox="0 0 1280 720" width="1280" height="720">
  <rect width="1280" height="720" fill="#F8FAFC" />
  <g id="header">
    <text x="52" y="74" font-family="Microsoft YaHei, Arial, sans-serif" font-size="36" font-weight="800" fill="#172033">贡献总结与一句话结论</text>
    <line x1="52" y1="104" x2="1228" y2="104" stroke="#CBD5E1" stroke-width="1" />
  </g>
  <g id="contribution-task">
    <rect x="80" y="160" width="350" height="230" fill="#FFFFFF" stroke="#CBD5E1" stroke-width="2" />
    
  <g transform="translate(118.0, 198.0) scale(1.5833333333333333)" fill="none" stroke="#155E75" stroke-width="2">
    <path d="M11 12a1 1 0 1 0 2 0a1 1 0 1 0 -2 0" />
    <path d="M7 12a5 5 0 1 0 10 0a5 5 0 1 0 -10 0" />
    <path d="M3 12a9 9 0 1 0 18 0a9 9 0 1 0 -18 0" />
  </g>
    <text x="176" y="226" font-family="Microsoft YaHei, Arial, sans-serif" font-size="26" font-weight="800" fill="#155E75">任务层</text>
    <text font-family="Microsoft YaHei, Arial, sans-serif" fill="#172033" font-size="21" x="118" y="292">提出语音引导的</text><text font-family="Microsoft YaHei, Arial, sans-serif" fill="#172033" font-size="21" x="118" y="330">知识草图结构化任务</text><text x="118" y="358" font-family="Microsoft YaHei, Arial, sans-serif" font-size="16" fill="#475569">把“边说边画”形式化为可研究问题。</text>
  </g>
  <g id="contribution-method">
    <rect x="465" y="160" width="350" height="230" fill="#FFFFFF" stroke="#CBD5E1" stroke-width="2" />
    
  <g transform="translate(503.0, 198.0) scale(1.5833333333333333)" fill="none" stroke="#0F766E" stroke-width="2">
    <path d="M3 19a2 2 0 1 0 4 0a2 2 0 0 0 -4 0" />
    <path d="M19 7a2 2 0 1 0 0 -4a2 2 0 0 0 0 4" />
    <path d="M11 19h5.5a3.5 3.5 0 0 0 0 -7h-8a3.5 3.5 0 0 1 0 -7h4.5" />
  </g>
    <text x="561" y="226" font-family="Microsoft YaHei, Arial, sans-serif" font-size="26" font-weight="800" fill="#0F766E">方法层</text>
    <text font-family="Microsoft YaHei, Arial, sans-serif" fill="#172033" font-size="21" x="503" y="292">提出 MMSB-Graph</text><text font-family="Microsoft YaHei, Arial, sans-serif" fill="#172033" font-size="21" x="503" y="330">图编辑桥框架</text><text x="503" y="358" font-family="Microsoft YaHei, Arial, sans-serif" font-size="16" fill="#475569">将图生成转化为路径优化问题。</text>
  </g>
  <g id="contribution-system">
    <rect x="850" y="160" width="350" height="230" fill="#FFFFFF" stroke="#CBD5E1" stroke-width="2" />
    
  <g transform="translate(888.0, 198.0) scale(1.5833333333333333)" fill="none" stroke="#F59E0B" stroke-width="2">
    <path d="M3 12h1m8 -9v1m8 8h1m-15.4 -6.4l.7 .7m12.1 -.7l-.7 .7" />
    <path d="M9 16a5 5 0 1 1 6 0a3.5 3.5 0 0 0 -1 3a2 2 0 0 1 -4 0a3.5 3.5 0 0 0 -1 -3" />
    <path d="M9.7 17l4.6 0" />
  </g>
    <text x="946" y="226" font-family="Microsoft YaHei, Arial, sans-serif" font-size="26" font-weight="800" fill="#172033">系统层</text>
    <text font-family="Microsoft YaHei, Arial, sans-serif" fill="#172033" font-size="21" x="888" y="292">构建交互输入到</text><text font-family="Microsoft YaHei, Arial, sans-serif" fill="#172033" font-size="21" x="888" y="330">可评测输出的闭环</text><text x="888" y="358" font-family="Microsoft YaHei, Arial, sans-serif" font-size="16" fill="#475569">支持方法图生成、编辑与指标报告。</text>
  </g>
  <g id="closing-sentence">
    <rect x="96" y="472" width="1088" height="120" fill="#155E75" />
    <text x="640" y="514" text-anchor="middle" font-family="Microsoft YaHei, Arial, sans-serif" font-size="26" font-weight="800" fill="#FFFFFF">一句话总结</text>
    <text font-family="Microsoft YaHei, Arial, sans-serif" text-anchor="middle" fill="#FFFFFF" font-size="22" x="640" y="556">本项目将“语音 + 草图”的自然表达过程抽象为多模态知识结构恢复问题，</text><text font-family="Microsoft YaHei, Arial, sans-serif" text-anchor="middle" fill="#FFFFFF" font-size="22" x="640" y="590">并用图编辑桥实现从不完整表达到可编辑知识图的可解释重建。</text></g>
  <g id="footer">
    <text x="52" y="682" font-family="Microsoft YaHei, Arial, sans-serif" font-size="12" fill="#94A3B8">Conclusion</text>
    <text x="1228" y="682" text-anchor="end" font-family="Microsoft YaHei, Arial, sans-serif" font-size="12" fill="#94A3B8">14</text>
  </g>
</svg>